<?xml version="1.0" encoding="UTF-8" standalone="no"?>
<!-- Created with Inkscape (http://www.inkscape.org/) -->

<svg
   version="1.1"
   id="svg62"
   width="128"
   height="128"
   viewBox="0 0 128 128"
   xmlns="http://www.w3.org/2000/svg"
   xmlns:svg="http://www.w3.org/2000/svg">
  <defs
     id="defs66" />
  <g
     id="g68">
    <path
       style="fill:#080804;stroke:none"
       d="m 0,43 18,-3 c -26.60383,37.2488 29.453789,84.58327 68,69 -36.8107,5.148 -100.023,-25.1956 -64,-69 -4.9403,13.0985 2.1118,22.8044 8,34 17.4686,-3.0088 41.1211,5.9853 45,-18 h 1 c 1.7145,5.9043 5.3015,8.9488 11,11 1.333931,0.578195 0.342901,0.441455 2,1 8.6999,2.3546 23.558,5.0056 30,-3 h 1 C 116.832,88.5831 107.08,86.2961 95,102 123.838,95.4497 127.997,57.9892 128,32 99.0131,31.8492 76.2557,9.11803 45,17.9946 33.0027,21.4018 28.7407,31.1143 18.7635,36.6412 12.8525,39.9155 5.1815,37.9208 0,43 M 106,33 23,37 C 40.0667,13.9641 86.0795,11.0761 106,33 m 9,1 -3,3 1,-3 h 2 M 91,66 C 92.2369,61.7391 93.7197,57.7463 96.1489,54 121.103,15.5152 106.438,68.5152 91,66 M 64,39 C 57.3509,51.9012 49.8018,70.9749 34,71 39.7671,61.2986 52.2331,39.4122 64,39 M 46,85 c 17.3777,18.971 47.9447,19.671 65,0 L 80.786672,97.55355 46,85 m 30,23 16,-8 c -4.4119,0.908 -15.0221,3.413 -16,8 m 12,3 8,-1 v -2 z"
       id="path910" />
  </g>
</svg>
